<?xml version="1.0" standalone="no"?>
<!DOCTYPE svg PUBLIC "-//W3C//DTD SVG 20010904//EN"
 "http://www.w3.org/TR/2001/REC-SVG-20010904/DTD/svg10.dtd">
<svg version="1.0" xmlns="http://www.w3.org/2000/svg"
 width="1350.000000pt" height="1350.000000pt" viewBox="0 0 1350.000000 1350.000000"
 preserveAspectRatio="xMidYMid meet">
<metadata>
Created by potrace 1.11, written by Peter Selinger 2001-2013
</metadata>
<g transform="translate(0.000000,1350.000000) scale(0.100000,-0.100000)"
fill="#000000" stroke="none">
<path d="M9634 12937 l-291 -192 -74 -160 c-101 -221 -479 -1015 -694 -1457
l-177 -367 -250 -162 -250 -162 -259 -519 c-142 -285 -259 -520 -259 -523 0
-3 77 -5 170 -5 94 0 170 -2 170 -5 0 -3 -131 -259 -291 -568 l-291 -563 -114
-74 c-63 -40 -114 -75 -114 -77 0 -1 217 -3 483 -3 l482 0 85 171 85 170 87
55 88 56 101 194 101 194 71 0 72 0 150 297 150 298 180 116 180 115 180 357
181 357 -109 325 -109 324 76 165 c42 91 202 434 357 763 279 593 458 978 485
1041 l14 32 -187 0 -188 0 -291 -193z"/>
<path d="M6682 7714 c-5 -10 -127 -247 -271 -526 l-261 -507 49 -152 50 -152
-1039 -2076 c-571 -1142 -1128 -2245 -1238 -2451 -447 -844 -762 -1450 -762
-1468 0 -13 34 -1 375 134 448 178 668 302 818 465 133 143 174 212 697 1174
93 170 1540 3029 1540 3042 0 5 -21 73 -46 153 l-46 146 566 1108 c312 610
565 1110 563 1112 -2 3 -225 7 -494 11 -476 6 -491 6 -501 -13z"/>
</g>
</svg>
