<svg xmlns="http://www.w3.org/2000/svg" viewBox="0 0 1715.83 637.36"><defs><style>.cls-1{fill:#fff;fill-rule:evenodd;}</style></defs><title>GR_logo_white</title><g id="Layer_2" data-name="Layer 2"><g id="Layer_1-2" data-name="Layer 1"><polygon class="cls-1" points="1097.88 255.56 1211.46 257.13 1239.97 201.91 1216.78 186.61 1171.24 186.61 1194.46 201.91 1170.93 247.93 1165.22 186.61 1102.72 186.61 1125.88 201.91 1097.88 255.56"/><polygon class="cls-1" points="1235.98 255.56 1349.57 257.13 1378.06 201.91 1354.84 186.61 1309.26 186.61 1332.6 201.91 1309.04 247.93 1303.34 186.61 1240.89 186.61 1264.04 201.83 1235.98 255.56"/><polygon class="cls-1" points="1715.83 213.3 1683.9 182.48 1613.32 182.43 1608.97 182.43 1600.25 182.43 1558.03 182.45 1523.49 182.48 1549.33 199.45 1513.87 268.8 1474.9 344.59 1508.09 366.51 1516.08 366.51 1539.97 320.74 1555.94 309.5 1596.9 230.81 1590.66 226.67 1646.85 226.7 1622.82 273.75 1576.11 306.5 1587.39 428.37 1607.78 428.37 1627.19 390.72 1625.91 376.95 1628.43 372.07 1624.44 326.78 1675.83 290.69 1715.83 213.3"/><polygon class="cls-1" points="203.92 261.94 135.81 261.91 172.5 286.25 123.06 380.65 75.99 380.65 114.69 305.42 112.35 293.77 144.97 230.25 202.91 230.18 188.97 257.5 255.44 256.53 279.92 209.01 239.67 182.46 59.51 182.46 97.08 207.39 0 396.12 48.57 428.37 167.16 428.37 240.18 286.23 203.92 261.94"/><path class="cls-1" d="M764.32,270.2,715,270.13l-26.78,52,4.93,15.12c-34.16,68.4-70.71,141.46-105,209.78-13.94,26-45.14,85.5-47.26,90.29,57.45-22,58.63-22.94,80.63-64,4.93-9.21,10-18.33,15.08-27.46,1.21-2.19,74.5-147.34,75.71-149.53l-4.82-14.92Z"/><polygon class="cls-1" points="494.49 267.34 468.89 317.46 443.73 317.46 469.5 267.04 421.69 266.47 377.26 352.96 501.68 352.96 545.35 267.96 494.49 267.34"/><polygon class="cls-1" points="917.99 273.11 919.98 269.15 865.68 269.64 834.28 290.19 844.93 269.64 793.57 269.96 750.98 353.07 801.71 353.09 834.24 290.27 832.65 353.02 860.44 371.46 880.45 371.46 879.83 298.63 917.99 273.11"/><polygon class="cls-1" points="1018.32 268.44 1004.52 292.97 991.79 317.84 971.01 317.84 995.75 268.66 942.97 269 911.26 329.77 946.01 352.96 1024.36 352.96 1068.02 268.18 1018.32 268.44"/><polygon class="cls-1" points="1474.08 261.06 1367.78 266.06 1346.05 308.39 1348.36 320.24 1331.44 352.99 1446.46 352.96 1473.22 300.65 1436.59 300.67 1412.76 309.67 1412.25 309.67 1408.21 317.48 1396.78 317.48 1413.15 286.12 1474.08 261.06"/><polygon class="cls-1" points="685.58 282.44 665.93 269.49 585.9 268.5 629.8 297.89 619.74 317.46 594.91 317.46 602.69 302.23 564.61 276.55 525.36 352.96 649.16 353.18 685.58 282.44"/><polygon class="cls-1" points="592.04 223.15 576.78 252.85 639.86 252.35 634.49 248.81 648.18 222.2 665.79 222.2 663.37 227 700.96 252.35 724.32 206.88 693.4 186.59 586.06 186.61 616.92 206.88 592.04 223.15"/><polygon class="cls-1" points="951.03 253.46 999.8 254.14 1034.39 186.61 954.84 186.64 977.96 201.83 951.03 253.46"/><polygon class="cls-1" points="238.49 264.23 266.03 282.49 229.4 352.96 273.78 352.96 280.92 352.96 322.91 270.71 340.72 282.44 304.6 352.96 353.59 352.95 398.28 266.15 238.49 264.23"/><polygon class="cls-1" points="354.7 255.41 403.98 254.85 427.93 208.22 439.02 186.64 358.51 186.61 382.21 201.91 354.7 255.41"/><polygon class="cls-1" points="1384.53 233.47 1371.06 259.68 1426.38 260.4 1446.03 222.13 1456.73 222.13 1448.05 238.93 1504.82 238.98 1521.48 206.91 1490.84 186.59 1386.47 186.59 1409.77 201.95 1397.54 225.03 1384.53 233.47"/><polygon class="cls-1" points="827.79 219.01 819.75 219 803.1 251.41 853.28 252.2 868.89 221.98 893 221.98 877.22 252.44 927.87 253.13 951.64 206.88 920.82 186.61 843.99 187.43 827.79 219.01"/><polygon class="cls-1" points="1074.7 255.17 1102.45 201.91 1078.92 186.61 1061.45 186.61 1027 254.51 1074.7 255.17"/><polygon class="cls-1" points="1091.36 268 1047.86 352.96 1092.76 352.96 1132.7 275.72 1142.48 381.42 1142.48 381.42 1143.08 388.01 1206 267.2 1091.36 268"/><polygon class="cls-1" points="1229.47 268 1185.97 352.96 1230.87 352.96 1270.81 275.72 1280.39 379.31 1281.19 388.01 1344.11 267.2 1229.47 268"/><polygon class="cls-1" points="476.15 254.02 492.05 222.2 517.16 222.2 501.42 253.74 552.95 253.14 576.93 206.88 545.76 186.61 477.16 186.59 466.94 206.88 444.66 221.5 427.8 254.57 476.15 254.02"/><polygon class="cls-1" points="278.92 256.27 330.73 255.68 361.41 196.61 346.84 186.61 284.09 186.61 307.29 201.83 278.92 256.27"/><path class="cls-1" d="M782.61,233.9l8.72-5.66,10-19.51h7.33l14.62-29.35,18.43-11.95,17.58-35.17.21.1-.11-.31.11-.21-.21-.1L848.58,99.57c15-32.79,31-65.81,46.46-99.57H876.72l-29,19.18c-16.31,35.78-47.28,99.13-47.28,99.13L775.63,134.5l-26.11,52-.06.05h17.59l-29.44,57-11.53,7.57H773.9Z"/></g></g></svg>